# xmcd
#
# Track frame offsets:
#	182
#	14285
#	26302
#	35620
#	49077
#	62377
#	75702
#	87262
#	97490
#	109632
#	122665
#	134677
#
# Disc length: 1976 seconds
#
# Revision: 1
# Processed by: cddbd v1.4PL0 Copyright (c) Steve Scherf et al.
# Submitted via: audiograbber 1.81.03
#
DISCID=9907b60c
DTITLE=Merle Haggard - All Night Long
DYEAR=1900
DGENRE=Country
TTITLE0=All Night Long (with Randy Travis)
TTITLE1=Honky Tonk Night Time Man
TTITLE2=I'm a White Boy
TTITLE3=Holding Things Together
TTITLE4=Uncle Lem
TTITLE5=Farmer's Daughter
TTITLE6=A Man's Got to Give Up a Lot
TTITLE7=I've Done it All
TTITLE8=Goodbye Lefty
TTITLE9=If You've Got Time (to Say Goodbye)
TTITLE10=September in Miami
TTITLE11=A Bar in Bakersfield
EXTD=
EXTT0=
EXTT1=
EXTT2=
EXTT3=
EXTT4=
EXTT5=
EXTT6=
EXTT7=
EXTT8=
EXTT9=
EXTT10=
EXTT11=
PLAYORDER=
